<svg id="Layer_1" data-name="Layer 1" xmlns="http://www.w3.org/2000/svg" viewBox="0 0 2748 2748"><title>logomodern</title><path d="M3014.3,2024.44c-8,0-14,3.65-18,10.9q-10.87,15.59-45.94,63.07t-84.11,116q-49,68.55-109,151.06t-120.7,167.42q-60.74,84.9-117.58,165.08T2417.7,2841.28c-29.59,42-377.12,537.55-394.78,564.54s-26.48,42-26.48,45.16q0,9.34,7.79,16.35c5.21,4.67,10.9,7,17.13,7q12.48,0,18.69-9.35l950-1339.32v856.55c0,7.28,2.53,13,7.54,17.13a25.46,25.46,0,0,0,16.6,6.23c6,0,11.58-2.33,16.59-7s7.54-10.12,7.54-16.35V2054a36.67,36.67,0,0,0-6-20.25Q3026.31,2024.45,3014.3,2024.44Z" transform="translate(-1126 -1126)"/><path d="M3207.26,1532.67c-4-4.67-9.51-7-16.52-7q-13.5,0-19.52,10.9L2400.33,2629.83l-570-800.49q-6.19-9.35-17.13-9.34-9.35,0-17.91,6.23c-5.69,4.16-8.56,9.34-8.56,15.57,0,5.21.53,8.32,1.56,9.34V3042.53a23.94,23.94,0,0,0,23.36,23.36,20,20,0,0,0,15.57-7,23.8,23.8,0,0,0,6.23-16.35V1918.11l537.29,752.21q-6.21,10.91-28,40.49t-50.62,69.3q-28.8,39.72-61.51,82.54t-59.19,81q-26.46,38.19-44.38,64.64T2109.1,3041a23,23,0,0,0,7.79,17.91c5.21,4.67,10.9,7,17.13,7q12.48,0,18.69-9.34l1055.89-1492c3.11-4.14,4.67-9.35,4.67-15.58A24.27,24.27,0,0,0,3207.26,1532.67Z" transform="translate(-1126 -1126)"/><path d="M2500,3874c-185.48,0-365.42-36.33-534.83-108A1378,1378,0,0,1,1234,3034.83c-71.65-169.41-108-349.35-108-534.83s36.33-365.42,108-534.83A1378,1378,0,0,1,1965.17,1234c169.41-71.65,349.35-108,534.83-108s365.42,36.33,534.83,108A1378,1378,0,0,1,3766,1965.17c71.65,169.41,108,349.35,108,534.83s-36.33,365.42-108,534.83A1378,1378,0,0,1,3034.83,3766C2865.42,3837.67,2685.48,3874,2500,3874Zm0-2712c-737.78,0-1338,600.22-1338,1338s600.22,1338,1338,1338,1338-600.22,1338-1338S3237.78,1162,2500,1162Z" transform="translate(-1126 -1126)"/></svg>